<?xml version="1.0" encoding="UTF-8"?>
<svg width="7px" height="9px" viewBox="0 0 7 9" version="1.1" xmlns="http://www.w3.org/2000/svg" xmlns:xlink="http://www.w3.org/1999/xlink">
    <!-- Generator: Sketch 52.2 (67145) - http://www.bohemiancoding.com/sketch -->
    <title>Shape</title>
    <desc>Created with Sketch.</desc>
    <g id="Desktop" stroke="none" stroke-width="1" fill="none" fill-rule="evenodd">
        <g id="Homepage-05" transform="translate(-1158.000000, -18.000000)" fill="#FFFFFF" fill-rule="nonzero">
            <g id="Header">
                <g id="Group-27">
                    <g transform="translate(1158.000000, 16.000000)">
                        <g id="Group-26">
                            <path d="M1.03846154,2 C0.467848385,2 -8.70414851e-14,2.46784838 -8.70414851e-14,3.03846154 L-8.70414851e-14,9.96153846 C-8.70414851e-14,10.5321516 0.467848385,11 1.03846154,11 L5.19230769,11 C5.76292085,11 6.23076923,10.5321516 6.23076923,9.96153846 L6.23076923,3.03846154 C6.23076923,2.46784838 5.76292085,2 5.19230769,2 L1.03846154,2 Z M1.03846154,2.69230769 L5.19230769,2.69230769 C5.38701923,2.69230769 5.53846154,2.84375 5.53846154,3.03846154 L5.53846154,9.96153846 C5.53846154,10.15625 5.38701923,10.3076923 5.19230769,10.3076923 L1.03846154,10.3076923 C0.84375,10.3076923 0.692307692,10.15625 0.692307692,9.96153846 L0.692307692,3.03846154 C0.692307692,2.84375 0.84375,2.69230769 1.03846154,2.69230769 Z M3.11538462,3.38461538 C2.92337723,3.38461538 2.76923077,3.53876185 2.76923077,3.73076923 C2.76923077,3.92277662 2.92337723,4.07692308 3.11538462,4.07692308 C3.307392,4.07692308 3.46153846,3.92277662 3.46153846,3.73076923 C3.46153846,3.53876185 3.307392,3.38461538 3.11538462,3.38461538 Z M2.07692308,8.92307692 L2.07692308,9.61538462 L4.15384615,9.61538462 L4.15384615,8.92307692 L2.07692308,8.92307692 Z" id="Shape"></path>
                        </g>
                    </g>
                </g>
            </g>
        </g>
    </g>
</svg>