<?xml version="1.0" encoding="UTF-8"?>
<svg width="30px" height="6px" viewBox="0 0 30 6" version="1.1" xmlns="http://www.w3.org/2000/svg" xmlns:xlink="http://www.w3.org/1999/xlink">
    <!-- Generator: Sketch 47.1 (45422) - http://www.bohemiancoding.com/sketch -->
    <title>ion-ios-arrow-thin-right - Ionicons</title>
    <desc>Created with Sketch.</desc>
    <defs></defs>
    <g id="Symbols" stroke="none" stroke-width="1" fill="none" fill-rule="evenodd">
        <g id="Footer" transform="translate(-1339.000000, -145.000000)" fill="#000000">
            <g id="Group-3" transform="translate(955.000000, 70.000000)">
                <g id="Group-2" transform="translate(0.000000, 53.000000)">
                    <path d="M411.0625,27.9687505 C410.937499,27.8437498 410.937499,27.7187511 411.0625,27.5937505 L413.15625,25.2812505 L384.25,25.2812505 C384.083332,25.2812505 384,25.197918 384,25.0312505 C384,24.864583 384.083332,24.7812505 384.25,24.7812505 L413.15625,24.7812505 L411.0625,22.4687505 C410.937499,22.3437498 410.937499,22.2187511 411.0625,22.0937505 C411.187501,21.9687498 411.312499,21.9687498 411.4375,22.0937505 C413.083342,23.9062595 413.916667,24.822917 413.9375,24.8437505 C413.979167,24.8854173 414,24.9479167 414,25.0312505 C414,25.1145842 413.979167,25.1770836 413.9375,25.2187505 L411.4375,27.9687505 C411.395833,28.0104173 411.333334,28.0312505 411.25,28.0312505 C411.166666,28.0312505 411.104167,28.0104173 411.0625,27.9687505 Z" id="ion-ios-arrow-thin-right---Ionicons"></path>
                </g>
            </g>
        </g>
    </g>
</svg>