<?xml version="1.0" encoding="UTF-8"?>
<svg width="16px" height="16px" viewBox="0 0 16 16" version="1.1" xmlns="http://www.w3.org/2000/svg" xmlns:xlink="http://www.w3.org/1999/xlink">
    <!-- Generator: Sketch 52.2 (67145) - http://www.bohemiancoding.com/sketch -->
    <title>Group 6</title>
    <desc>Created with Sketch.</desc>
    <defs>
        <polygon id="path-1" points="0.000172186647 0.150556098 15.9890526 0.150556098 15.9890526 10.5365073 0.000172186647 10.5365073"></polygon>
    </defs>
    <g id="Symbols" stroke="none" stroke-width="1" fill="none" fill-rule="evenodd">
        <g id="Header" transform="translate(-1243.000000, -77.000000)">
            <g id="Group-2">
                <g>
                    <g transform="translate(1213.000000, 65.000000)">
                        <g id="Group-25" transform="translate(30.000000, 12.000000)">
                            <g id="Group-6">
                                <g id="Group-3" transform="translate(0.000000, 5.439141)">
                                    <mask id="mask-2" fill="white">
                                        <use xlink:href="#path-1"></use>
                                    </mask>
                                    <g id="Clip-2"></g>
                                    <path d="M14.5202105,1.44499512 C14.3993684,0.7008 13.7096842,0.150556098 12.8978947,0.150556098 C12.8793684,0.150556098 12.8642105,0.164604878 12.8642105,0.18177561 L12.8642105,0.346068293 C12.8642105,1.01221463 12.3808421,1.62801951 11.6747368,1.75094634 C10.7383158,1.91406829 9.91684211,1.24909268 9.91684211,0.410068293 L9.91684211,0.150556098 L5.92610526,0.150556098 C5.90757895,0.150556098 5.89242105,0.164604878 5.89242105,0.18177561 L5.89242105,0.346068293 C5.89242105,1.01221463 5.40905263,1.62801951 4.70294737,1.75094634 C3.76610526,1.91406829 2.94505263,1.24909268 2.94505263,0.410068293 L2.94505263,0.160312195 C2.20231579,0.211043902 1.58547368,0.726165854 1.47305263,1.41845854 L0.000631578947,10.5009951 C-0.00273684211,10.5197268 0.0128421053,10.5365073 0.0334736842,10.5365073 L15.9555789,10.5365073 C15.9762105,10.5365073 15.9917895,10.5197268 15.9888421,10.5009951 L14.5202105,1.44499512 Z" id="Fill-1" fill="#FFFFFF" mask="url(#mask-2)"></path>
                                </g>
                                <path d="M11.3906947,6.43445854 C11.0416421,6.43445854 10.7591158,6.17260488 10.7591158,5.84909268 L10.7591158,3.8163122 C10.7591158,2.35758049 9.47869474,1.17084878 7.9048,1.17084878 C6.33090526,1.17084878 5.05048421,2.35758049 5.05048421,3.8163122 L5.05048421,5.84909268 C5.05048421,6.17260488 4.76795789,6.43445854 4.41890526,6.43445854 C4.06985263,6.43445854 3.78732632,6.17260488 3.78732632,5.84909268 L3.78732632,3.8163122 C3.78732632,1.71211707 5.63448421,0.000117073171 7.9048,0.000117073171 C10.1751158,0.000117073171 12.0222737,1.71211707 12.0222737,3.8163122 L12.0222737,5.84909268 C12.0222737,6.17260488 11.7397474,6.43445854 11.3906947,6.43445854" id="Fill-4" fill="#FFFFFF"></path>
                            </g>
                        </g>
                    </g>
                </g>
            </g>
        </g>
    </g>
</svg>